#!OML:ASF F:\VICON\USERDATA\INSTALL\rory3\rory3.ASF
:FULLY-SPECIFIED
:DEGREES
2323
root 1.0707 17.7992 1.0296 11.8483 -20.3079 3.69749
lowerback 6.06507 -7.74474 -4.50283
upperback 2.03961 -10.5771 6.96672
thorax 0.936867 -5.49526 10.2449
lowerneck -21.905 -7.64691 -12.8544
upperneck 29.3663 -10.6029 11.6795
head 15.3781 -4.46373 4.94501
rclavicle 1.09332e-013 -3.18055e-014
rhumerus 18.6864 30.684 -46.9283
rradius 70.5892
rwrist 36.6269
rhand -50.5383 -13.8768
rfingers 7.12502
rthumb -23.1057 -42.5114
lclavicle 1.09332e-013 -3.18055e-014
lhumerus 53.1157 -43.804 56.4419
lradius 40.0593
lwrist -29.7497
lhand -43.1004 35.5164
lfingers 7.12502
lthumb -15.9551 64.8792
rfemur -31.9679 7.394 7.49501
rtibia 35.183
rfoot -13.1108 -0.435734
rtoes 1.80482
lfemur -11.0187 10.2977 -20.9722
ltibia 18.5494
lfoot -13.0965 18.229
ltoes -19.581
2324
root 1.05565 17.7948 1.04026 11.887 -20.5635 3.92008
lowerback 5.91075 -7.84494 -4.46571
upperback 2.1595 -10.7126 6.97713
thorax 1.17244 -5.57755 10.1964
lowerneck -22.2207 -7.59716 -12.5056
upperneck 29.3157 -10.5009 11.3726
head 15.3575 -4.40761 4.76525
rclavicle 5.84427e-014 -3.65764e-014
rhumerus 19.3449 30.4139 -46.6967
rradius 70.5173
rwrist 32.879
rhand -48.5883 -13.2998
rfingers 7.12502
rthumb -21.2336 -42.1568
lclavicle 5.84427e-014 -3.65764e-014
lhumerus 54.688 -43.9338 55.0916
lradius 39.38
lwrist -31.6157
lhand -44.8944 36.7298
lfingers 7.12502
lthumb -17.682 65.9458
rfemur -32.2117 7.55738 7.23267
rtibia 35.3968
rfoot -13.1921 -0.310889
rtoes 2.04479
lfemur -10.9589 10.4376 -21.2151
ltibia 18.3281
lfoot -13.0909 18.2954
ltoes -19.4456
2325
root 1.04078 17.7912 1.05004 11.8469 -20.8328 4.18513
lowerback 5.86402 -7.99802 -4.50837
upperback 2.21524 -10.9241 7.04249
thorax 1.32427 -5.69627 10.273
lowerneck -22.4028 -7.48878 -12.4958
upperneck 29.3129 -10.2381 11.1605
head 15.3353 -4.3168 4.72544
rclavicle -1.36764e-013 -3.18055e-015
rhumerus 20.1412 30.3557 -46.3461
rradius 70.4827
rwrist 28.2498
rhand -45.9822 -13.2643
rfingers 7.12502
rthumb -18.7286 -42.3827
lclavicle -1.36764e-013 -3.18055e-015
lhumerus 55.9284 -43.8723 54.0061
lradius 38.7593
lwrist -33.5229
lhand -46.3 38.3565
lfingers 7.12502
lthumb -19.0343 67.4451
rfemur -32.3906 7.73724 6.93841
rtibia 35.6079
rfoot -13.2937 -0.259632
rtoes 2.03105
lfemur -10.8346 10.6129 -21.4924
ltibia 18.133
lfoot -13.1584 18.3479
ltoes -18.502
2326
root 1.02766 17.7871 1.05995 11.9042 -21.0963 4.32733
lowerback 5.81192 -8.19708 -4.42636
upperback 2.24799 -11.1891 7.12138
thorax 1.44546 -5.83801 10.2944
lowerneck -22.6849 -7.32636 -12.3456
upperneck 29.3961 -9.94408 10.9298
head 15.3601 -4.19739 4.66275
rclavicle -1.98785e-015 1.59028e-015
rhumerus 20.9689 30.2241 -46.1766
rradius 70.4659
rwrist 23.0118
rhand -42.5404 -12.4196
rfingers 7.12502
rthumb -15.4158 -41.8248
lclavicle -1.98785e-015 1.59028e-015
lhumerus 56.5755 -43.5593 53.5221
lradius 38.1238
lwrist -35.7624
lhand -47.6001 38.4412
lfingers 7.12502
lthumb -20.2841 67.402
rfemur -32.6371 7.91542 6.76072
rtibia 35.8207
rfoot -13.3799 -0.221676
rtoes 2.41925
lfemur -10.8009 10.6963 -21.6596
ltibia 17.9834
lfoot -13.146 18.4772
ltoes -17.6653
2327
root 1.01473 17.7805 1.07226 12.0363 -21.4441 4.385
lowerback 5.63468 -8.32596 -4.22369
upperback 2.28308 -11.3521 7.16853
thorax 1.58475 -5.92442 10.1954
lowerneck -22.8443 -7.1666 -12.1525
upperneck 29.4484 -9.71434 10.7777
head 15.3581 -4.09455 4.61321
rclavicle -7.07673e-014 4.6118e-014
rhumerus 21.6005 29.8524 -46.1875
rradius 70.4852
rwrist 17.2852
rhand -38.3177 -11.2096
rfingers 7.12502
rthumb -11.3457 -40.8827
lclavicle -7.07673e-014 4.6118e-014
lhumerus 57.8749 -43.9758 51.8955
lradius 37.8975
lwrist -37.7571
lhand -46.8646 41.998
lfingers 7.12502
lthumb -19.5771 71.0324
rfemur -32.9727 8.10913 6.64871
rtibia 36.0359
rfoot -13.3628 -0.0453672
rtoes 2.9052
lfemur -10.8043 10.8333 -21.7658
ltibia 17.8314
lfoot -13.1456 18.6244
ltoes -17.9754
2328
root 0.999008 17.7742 1.08299 12.1192 -21.8055 4.39397
lowerback 5.52791 -8.33977 -4.05379
upperback 2.31297 -11.3654 7.28133
thorax 1.66887 -5.93581 10.2023
lowerneck -22.8792 -7.11765 -12.1359
upperneck 29.3942 -9.56217 10.5797
head 15.3007 -4.05271 4.554
rclavicle 4.92986e-014 -1.90833e-014
rhumerus 22.1254 29.3263 -45.9558
rradius 70.6328
rwrist 10.4549
rhand -33.7182 -10.7959
rfingers 7.12502
rthumb -6.90757 -40.6633
lclavicle 4.92986e-014 -1.90833e-014
lhumerus 58.8821 -44.0266 51.2213
lradius 37.3747
lwrist -39.2987
lhand -48.3264 42.7448
lfingers 7.12502
lthumb -20.982 71.6298
rfemur -33.2471 8.28669 6.62184
rtibia 36.2544
rfoot -13.3817 0.170932
rtoes 3.07973
lfemur -10.7331 11.0027 -21.8026
ltibia 17.6684
lfoot -13.1121 18.8083
ltoes -18.4262
2329
root 0.983645 17.7709 1.09222 12.0759 -22.0689 4.55545
lowerback 5.65305 -8.43087 -4.13526
upperback 2.30093 -11.4963 7.42846
thorax 1.66492 -6.00989 10.4253
lowerneck -23.0889 -7.02132 -12.0371
upperneck 29.4076 -9.29946 10.2227
head 15.2802 -3.97091 4.4363
rclavicle -7.95139e-015 1.43125e-014
rhumerus 22.8316 28.931 -45.6619
rradius 70.7048
rwrist 3.12404
rhand -28.9786 -10.6446
rfingers 7.12502
rthumb -2.33106 -40.6116
lclavicle -7.95139e-015 1.43125e-014
lhumerus 59.4003 -43.6779 51.0361
lradius 36.5282
lwrist -41.7264
lhand -50.6279 42.8849
lfingers 7.12502
lthumb -23.1917 71.5087
rfemur -33.4083 8.38696 6.47225
rtibia 36.4867
rfoot -13.3984 0.266664
rtoes 2.64552
lfemur -10.5707 11.0892 -21.9643
ltibia 17.477
lfoot -13.0854 18.9716
ltoes -18.4828
2330
root 0.970279 17.7677 1.10472 12.0162 -22.3238 4.79554
lowerback 5.69468 -8.57556 -4.20805
upperback 2.28879 -11.6972 7.51835
thorax 1.70844 -6.11873 10.5646
lowerneck -23.2301 -6.85617 -11.9204
upperneck 29.4127 -8.96941 9.91495
head 15.2346 -3.85564 4.35212
rclavicle 4.69132e-014 -1.59028e-015
rhumerus 23.484 28.4745 -45.7552
rradius 70.5052
rwrist -4.09613
rhand -23.765 -10.3784
rfingers 7.12502
rthumb 2.70434 -40.341
lclavicle 4.69132e-014 -1.59028e-015
lhumerus 60.0513 -43.4456 50.3645
lradius 35.9408
lwrist -43.6594
lhand -51.6286 44.614
lfingers 7.12502
lthumb -24.1515 73.1136
rfemur -33.565 8.40513 6.23883
rtibia 36.7208
rfoot -13.4816 0.359913
rtoes 1.97647
lfemur -10.4153 11.0831 -22.2249
ltibia 17.2829
lfoot -13.0313 19.2051
ltoes -18.5304
2331
root 0.958232 17.7614 1.11652 12.0077 -22.6491 4.97457
lowerback 5.6003 -8.68282 -4.14728
upperback 2.31501 -11.8408 7.57347
thorax 1.81972 -6.19765 10.5664
lowerneck -23.3348 -6.68348 -11.8367
upperneck 29.4482 -8.64545 9.66544
head 15.2039 -3.74085 4.29928
rclavicle 0 6.52014e-014
rhumerus 24.0593 27.9149 -45.8484
rradius 70.2659
rwrist -11.5545
rhand -18.3383 -10.4724
rfingers 7.12502
rthumb 7.94384 -40.3032
lclavicle 0 6.52014e-014
lhumerus 61.1889 -43.4844 48.8929
lradius 35.7547
lwrist -44.2878
lhand -51.7963 47.3746
lfingers 7.12502
lthumb -24.3122 75.8528
rfemur -33.7756 8.43956 6.05424
rtibia 36.9432
rfoot -13.5734 0.639227
rtoes 1.96404
lfemur -10.2945 11.1382 -22.4471
ltibia 17.096
lfoot -13.0306 19.4639
ltoes -18.6066
2332
root 0.944887 17.7543 1.1227 12.0661 -23.0034 5.02333
lowerback 5.59269 -8.76251 -4.09391
upperback 2.29571 -11.949 7.7188
thorax 1.85017 -6.2581 10.6914
lowerneck -23.5129 -6.52577 -11.8221
upperneck 29.5686 -8.30729 9.39296
head 15.2307 -3.63024 4.25384
rclavicle -4.53229e-014 -4.77083e-015
rhumerus 24.545 27.4021 -45.7953
rradius 70.0375
rwrist -18.6032
rhand -13.1696 -10.3184
rfingers 7.12502
rthumb 12.9297 -39.8978
lclavicle -4.53229e-014 -4.77083e-015
lhumerus 62.3724 -43.6358 47.3314
lradius 35.6959
lwrist -44.2399
lhand -51.539 50.4416
lfingers 7.12502
lthumb -24.0655 78.9526
rfemur -34.0453 8.56871 5.99714
rtibia 37.1518
rfoot -13.5065 0.919468
rtoes 2.4757
lfemur -10.2127 11.2573 -22.5263
ltibia 16.942
lfoot -13.1404 19.6435
ltoes -18.3511
2333
root 0.932517 17.7479 1.13026 12.0951 -23.3183 5.08229
lowerback 5.58893 -8.81988 -3.99881
upperback 2.29989 -12.0252 7.84852
thorax 1.88413 -6.30166 10.7765
lowerneck -23.763 -6.42013 -11.8163
upperneck 29.6814 -8.03677 9.13673
head 15.2829 -3.54491 4.20148
rclavicle 1.27222e-014 1.59028e-014
rhumerus 24.9803 26.8462 -45.719
rradius 69.7534
rwrist -24.8164
rhand -9.09687 -10.183
rfingers 7.12502
rthumb 16.8532 -39.4717
lclavicle 1.27222e-014 1.59028e-014
lhumerus 63.4061 -43.5985 46.212
lradius 35.742
lwrist -43.9888
lhand -51.0858 51.4971
lfingers 7.12502
lthumb -23.6309 80.0649
rfemur -34.2752 8.7773 5.90354
rtibia 37.3329
rfoot -13.4445 0.999274
rtoes 2.3382
lfemur -10.1617 11.3848 -22.6081
ltibia 16.8557
lfoot -13.1506 19.7977
ltoes -18.0869
2334
root 0.920792 17.7425 1.13747 11.9886 -23.5602 5.25107
lowerback 5.63788 -8.85968 -3.90921
upperback 2.37718 -12.0789 7.90412
thorax 1.94527 -6.33447 10.7874
lowerneck -24.04 -6.37258 -11.8875
upperneck 29.7166 -7.84853 8.99681
head 15.3292 -3.48538 4.1922
rclavicle 6.75868e-014 -6.83819e-014
rhumerus 25.4034 26.3054 -45.5888
rradius 69.4824
rwrist -30.2099
rhand -6.66644 -10.5191
rfingers 7.12502
rthumb 19.1916 -39.5922
lclavicle 6.75868e-014 -6.83819e-014
lhumerus 64.1796 -43.406 45.5824
lradius 35.924
lwrist -43.8151
lhand -50.9839 50.647
lfingers 7.12502
lthumb -23.5331 79.2274
rfemur -34.3618 8.98601 5.71304
rtibia 37.4972
rfoot -13.4952 1.03317
rtoes 2.25807
lfemur -10.0453 11.5106 -22.7659
ltibia 16.8014
lfoot -13.1518 19.847
ltoes -17.9222
2335
root 0.907885 17.7383 1.14295 11.9274 -23.7907 5.36267
lowerback 5.64169 -8.90018 -3.7762
upperback 2.47801 -12.1338 7.99178
thorax 2.05496 -6.37085 10.7988
lowerneck -24.3736 -6.32025 -11.9645
upperneck 29.6499 -7.62094 8.83432
head 15.3344 -3.40989 4.17839
rclavicle 5.56597e-015 -1.74931e-014
rhumerus 25.9047 25.9446 -45.1701
rradius 69.1066
rwrist -34.9502
rhand -5.17361 -10.4132
rfingers 7.12502
rthumb 20.6266 -39.3373
lclavicle 5.56597e-015 -1.74931e-014
lhumerus 65.3648 -43.5109 44.1145
lradius 36.2204
lwrist -42.7025
lhand -50.1974 52.7113
lfingers 7.12502
lthumb -22.7785 81.3865
rfemur -34.4471 9.17249 5.59271
rtibia 37.6489
rfoot -13.562 1.18277
rtoes 2.767
lfemur -9.94372 11.7495 -22.865
ltibia 16.7464
lfoot -13.127 19.8342
ltoes -18.3073
2336
root 0.895899 17.7334 1.15154 11.8848 -24.1784 5.46188
lowerback 5.50572 -8.91137 -3.60184
upperback 2.60586 -12.1469 7.97436
thorax 2.22654 -6.38273 10.6464
lowerneck -24.6888 -6.2079 -11.8588
upperneck 29.6973 -7.4189 8.7258
head 15.3854 -3.32016 4.15609
rclavicle 4.77083e-014 -4.13472e-014
rhumerus 26.3551 25.7308 -44.8443
rradius 68.5335
rwrist -38.7414
rhand -4.0018 -9.797
rfingers 7.12502
rthumb 21.7522 -38.5948
lclavicle 4.77083e-014 -4.13472e-014
lhumerus 66.1899 -43.6613 42.9677
lradius 36.0786
lwrist -42.3563
lhand -49.4955 57.0924
lfingers 7.12502
lthumb -22.1048 85.8488
rfemur -34.6054 9.45326 5.4528
rtibia 37.8225
rfoot -13.6608 1.30159
rtoes 2.55308
lfemur -9.81108 11.977 -22.9916
ltibia 16.6561
lfoot -13.1981 19.9615
ltoes -18.6509
2337
root 0.884752 17.728 1.16148 11.9012 -24.6049 5.53819
lowerback 5.27391 -8.95606 -3.36205
upperback 2.72716 -12.1999 7.87545
thorax 2.41825 -6.40863 10.3518
lowerneck -24.859 -6.00356 -11.6322
upperneck 29.7628 -7.18343 8.68802
head 15.406 -3.19804 4.15297
rclavicle -9.38264e-014 6.36111e-015
rhumerus 26.8773 25.6958 -44.6946
rradius 67.8425
rwrist -40.9673
rhand -3.34664 -9.29031
rfingers 7.12502
rthumb 22.3813 -38.0138
lclavicle -9.38264e-014 6.36111e-015
lhumerus 65.5521 -43.1887 43.882
lradius 35.3552
lwrist -44.679
lhand -50.425 58.8581
lfingers 7.12502
lthumb -22.997 87.5062
rfemur -34.8531 9.71635 5.31846
rtibia 38.0021
rfoot -13.7194 1.4104
rtoes 2.46299
lfemur -9.72889 12.0627 -23.1204
ltibia 16.5535
lfoot -13.252 20.2728
ltoes -18.815
